<?xml version="1.0" encoding="UTF-8" standalone="no"?>
<!-- Created with Inkscape (http://www.inkscape.org/) -->
<svg
   xmlns:dc="http://purl.org/dc/elements/1.1/"
   xmlns:cc="http://creativecommons.org/ns#"
   xmlns:rdf="http://www.w3.org/1999/02/22-rdf-syntax-ns#"
   xmlns:svg="http://www.w3.org/2000/svg"
   xmlns="http://www.w3.org/2000/svg"
   xmlns:sodipodi="http://sodipodi.sourceforge.net/DTD/sodipodi-0.dtd"
   xmlns:inkscape="http://www.inkscape.org/namespaces/inkscape"
   width="101.21249"
   height="59.281597"
   id="svg4024"
   sodipodi:version="0.32"
   inkscape:version="0.46"
   version="1.0"
   sodipodi:docname="Feeding America logo.svg"
   inkscape:output_extension="org.inkscape.output.svg.inkscape">
  <defs
     id="defs4026">
    <inkscape:perspective
       sodipodi:type="inkscape:persp3d"
       inkscape:vp_x="0 : 526.18109 : 1"
       inkscape:vp_y="0 : 1000 : 0"
       inkscape:vp_z="744.09448 : 526.18109 : 1"
       inkscape:persp3d-origin="372.04724 : 350.78739 : 1"
       id="perspective4032" />
    <inkscape:perspective
       id="perspective4041"
       inkscape:persp3d-origin="372.04724 : 350.78739 : 1"
       inkscape:vp_z="744.09448 : 526.18109 : 1"
       inkscape:vp_y="0 : 1000 : 0"
       inkscape:vp_x="0 : 526.18109 : 1"
       sodipodi:type="inkscape:persp3d" />
  </defs>
  <sodipodi:namedview
     id="base"
     pagecolor="#ffffff"
     bordercolor="#666666"
     borderopacity="1.0"
     gridtolerance="10000"
     guidetolerance="10"
     objecttolerance="10"
     inkscape:pageopacity="0.0"
     inkscape:pageshadow="2"
     inkscape:zoom="3.0296944"
     inkscape:cx="50.606243"
     inkscape:cy="29.640799"
     inkscape:document-units="px"
     inkscape:current-layer="layer1"
     showgrid="false"
     showguides="true"
     inkscape:guide-bbox="true"
     inkscape:window-width="1024"
     inkscape:window-height="721"
     inkscape:window-x="-4"
     inkscape:window-y="-4" />
  <metadata
     id="metadata4029">
    <rdf:RDF>
      <cc:Work
         rdf:about="">
        <dc:format>image/svg+xml</dc:format>
        <dc:type
           rdf:resource="http://purl.org/dc/dcmitype/StillImage" />
      </cc:Work>
    </rdf:RDF>
  </metadata>
  <g
     inkscape:label="Layer 1"
     inkscape:groupmode="layer"
     id="layer1"
     transform="translate(-367.97968,-528.58759)">
    <path
       transform="scale(1.0507223,0.9517263)"
       style="font-size:261.21298218px;font-style:normal;font-weight:normal;text-align:start;line-height:125%;text-anchor:start;fill:#f8971c;fill-opacity:1;stroke:none;stroke-width:1px;stroke-linecap:butt;stroke-linejoin:miter;stroke-opacity:1;font-family:Bitstream Vera Sans"
       d="M 357.47192,581.2968 L 367.14024,581.2968 L 367.14024,583.83664 L 360.2653,583.83664 L 360.2653,586.53922 L 366.3237,586.53922 L 366.3237,589.07906 L 360.2653,589.07906 L 360.2653,593.99487 L 357.47192,593.99487 L 357.47192,581.2968 z M 370.30419,581.2968 L 379.88172,581.2968 L 379.88172,583.78238 L 373.07929,583.78238 L 373.07929,586.3582 L 379.06518,586.3582 L 379.06518,588.84323 L 373.07929,588.84323 L 373.07929,591.50984 L 379.9725,591.50984 L 379.9725,593.99487 L 370.30419,593.99487 L 370.30419,581.2968 z M 383.38446,581.2968 L 392.96199,581.2968 L 392.96199,583.78238 L 386.15957,583.78238 L 386.15957,586.3582 L 392.14545,586.3582 L 392.14545,588.84323 L 386.15957,588.84323 L 386.15957,591.50984 L 393.05277,591.50984 L 393.05277,593.99487 L 383.38446,593.99487 L 383.38446,581.2968 z M 401.10718,591.47331 C 401.67551,591.47331 402.19551,591.38261 402.66717,591.20122 C 403.13881,591.01983 403.5409,590.75983 403.87343,590.42122 C 404.20594,590.08262 404.46593,589.68358 404.65342,589.2241 C 404.84089,588.76463 404.93463,588.25072 404.93464,587.68237 L 404.93464,587.64584 C 404.93463,587.08968 404.84089,586.57577 404.65342,586.10411 C 404.46593,585.63246 404.20594,585.22734 403.87343,584.88872 C 403.5409,584.55012 403.13881,584.28708 402.66717,584.09959 C 402.19551,583.91212 401.67551,583.81838 401.10718,583.81837 L 398.94876,583.81837 L 398.94876,591.47331 L 401.10718,591.47331 z M 396.15538,581.2968 L 401.10718,581.2968 C 402.09882,581.29681 403.00881,581.45707 403.83717,581.77759 C 404.6655,582.09812 405.37898,582.54256 405.97759,583.11089 C 406.57619,583.67924 407.0388,584.34742 407.36542,585.11541 C 407.69203,585.88342 407.85533,586.7149 407.85535,587.60985 L 407.85535,587.64584 C 407.85533,588.5408 407.69203,589.37523 407.36542,590.14914 C 407.0388,590.92305 406.57619,591.59427 405.97759,592.16279 C 405.37898,592.73132 404.6655,593.1788 403.83717,593.50523 C 403.00881,593.83166 402.09882,593.99487 401.10718,593.99487 L 396.15538,593.99487 L 396.15538,581.2968 z M 410.45387,581.2968 L 413.24725,581.2968 L 413.24725,597.92235 L 410.45387,597.92235 L 410.45387,581.2968 z M 416.73028,581.2968 L 419.30609,581.2968 L 424.32741,589.11504 L 424.32741,581.2968 L 426.93014,581.2968 L 426.93014,593.99487 L 424.39949,593.99487 L 419.48712,585.92253 L 419.48712,593.99487 L 416.73028,593.99487 L 416.73028,581.2968 z"
       id="text4047"
       sodipodi:nodetypes="ccccccccccccccccccccccccccccccccccccccsssccsssccccccsssccsssccccccccccccccccccc" />
    <path
       style="font-size:261.21298218px;font-style:normal;font-weight:normal;text-align:start;line-height:125%;text-anchor:start;fill:#f8971c;fill-opacity:1;stroke:none;stroke-width:1px;stroke-linecap:butt;stroke-linejoin:miter;stroke-opacity:1;font-family:Bitstream Vera Sans"
       d="M 457.86788,565.5276 C 456.90816,565.5276 456.03336,565.36871 455.24348,565.0509 C 454.45359,564.73311 453.77478,564.29162 453.20706,563.72646 C 452.63934,563.16129 452.19753,562.49022 451.8816,561.71323 C 451.56568,560.93626 451.40773,560.0886 451.40773,559.17024 L 451.40773,559.13467 C 451.40773,558.25189 451.56862,557.42488 451.89044,556.65365 C 452.21225,555.88243 452.65988,555.20543 453.23332,554.62265 C 453.80675,554.03989 454.48555,553.58071 455.26974,553.24512 C 456.05389,552.90954 456.91423,552.74175 457.85074,552.74175 C 458.40077,552.74175 458.90108,552.78003 459.35166,552.85653 C 459.80222,552.93309 460.22057,553.04204 460.60668,553.18341 C 460.99276,553.3248 461.35556,553.5014 461.69506,553.71319 C 462.03454,553.925 462.36234,554.16637 462.67845,554.43725 L 460.97527,556.50357 C 460.74132,556.30344 460.50728,556.12684 460.27316,555.97377 C 460.03903,555.82073 459.79616,555.6912 459.54454,555.5852 C 459.2929,555.47922 459.02082,555.39676 458.72831,555.33783 C 458.43578,555.27891 458.11396,555.24945 457.76287,555.24944 C 457.27104,555.24945 456.81154,555.35248 456.38437,555.55852 C 455.95719,555.76459 455.5827,556.04124 455.26089,556.3885 C 454.93907,556.73576 454.68745,557.14194 454.506,557.60704 C 454.32456,558.07216 454.23384,558.56969 454.23384,559.09964 L 454.23384,559.13467 C 454.23384,559.69985 454.32456,560.22081 454.506,560.6976 C 454.68745,561.17439 454.94497,561.58937 455.27857,561.94255 C 455.61216,562.29574 456.00425,562.56952 456.45483,562.76391 C 456.9054,562.95829 457.4057,563.05548 457.95575,563.05548 C 458.96225,563.05548 459.81089,562.8081 460.50166,562.31336 L 460.50166,560.54777 L 457.78002,560.54777 L 457.78002,558.19853 L 463.11723,558.19853 L 463.11723,563.56746 C 462.48502,564.10892 461.733,564.57097 460.86116,564.95363 C 459.9893,565.33627 458.99154,565.5276 457.86788,565.5276 L 457.86788,565.5276 z"
       id="path4052"
       sodipodi:nodetypes="csssccsssssssccsssssssccssssccccccscc" />
    <path
       style="font-size:254.69830322px;font-style:normal;font-weight:normal;text-align:start;line-height:125%;text-anchor:start;fill:#4e6e17;fill-opacity:1;stroke:none;stroke-width:1px;stroke-linecap:butt;stroke-linejoin:miter;stroke-opacity:1;font-family:Bitstream Vera Sans"
       d="M 380.91722,576.13931 L 379.27253,572.2029 L 377.62729,576.13931 L 380.91722,576.13931 z M 378.05209,568.9947 L 380.56367,568.9947 L 385.86967,581.22045 L 383.02235,581.22045 L 381.8899,578.49756 L 376.65461,578.49756 L 375.5227,581.22045 L 372.74555,581.22045 L 378.05209,568.9947 z M 388.09471,569.08097 L 391.03055,569.08097 L 394.28486,574.2145 L 397.53971,569.08097 L 400.47556,569.08097 L 400.47556,581.22045 L 397.76966,581.22045 L 397.76966,573.29523 L 394.28486,578.48063 L 394.21415,578.48063 L 390.76498,573.34709 L 390.76498,581.22045 L 388.09471,581.22045 L 388.09471,569.08097 z M 404.4259,569.08097 L 413.76456,569.08097 L 413.76456,571.45721 L 407.1318,571.45721 L 407.1318,573.91972 L 412.96839,573.91972 L 412.96839,576.29544 L 407.1318,576.29544 L 407.1318,578.84474 L 413.85309,578.84474 L 413.85309,581.22045 L 404.4259,581.22045 L 404.4259,569.08097 z M 422.69044,574.97765 C 423.36227,574.97766 423.87803,574.82154 424.23771,574.50928 C 424.59737,574.19704 424.7772,573.78072 424.77721,573.2603 L 424.77721,573.22589 C 424.7772,572.64799 424.58855,572.21446 424.21126,571.92531 C 423.83395,571.63619 423.30919,571.49162 422.637,571.49161 L 420.32264,571.49161 L 420.32264,574.97765 L 422.69044,574.97765 z M 417.59893,569.08097 L 423.25848,569.08097 C 424.82671,569.08098 426.02951,569.49149 426.86689,570.31249 C 427.57434,571.00613 427.92808,571.93105 427.92809,573.08724 L 427.92809,573.12164 C 427.92808,574.1046 427.68338,574.90533 427.19399,575.52381 C 426.70458,576.14232 425.75222,576.59604 424.96236,576.885 L 428.29945,581.22045 L 424.80312,581.22045 L 422.15012,577.33591 L 422.1145,577.33591 L 420.32264,577.33591 L 420.32264,581.22045 L 417.59893,581.22045 L 417.59893,569.08097 z M 431.26717,569.04774 L 434.20217,569.04774 L 434.20217,581.22045 L 431.26717,581.22045 L 431.26717,569.04774 z M 443.8593,581.42844 C 442.95139,581.42844 442.10835,581.26658 441.33018,580.94287 C 440.552,580.61916 439.87988,580.17699 439.31384,579.61636 C 438.7478,579.05573 438.30563,578.39384 437.98734,577.63068 C 437.66905,576.86754 437.50991,576.05252 437.50991,575.18564 L 437.50991,575.15071 C 437.50991,574.28383 437.66905,573.47173 437.98734,572.7144 C 438.30563,571.95708 438.7478,571.29227 439.31384,570.72 C 439.87988,570.14773 440.55793,569.69682 441.34799,569.36728 C 442.13804,569.03776 443.01058,568.87299 443.96563,568.87298 C 444.54355,568.87299 445.07127,568.91921 445.5488,569.01164 C 446.02631,569.10408 446.45966,569.23128 446.84885,569.39321 C 447.23801,569.55517 447.59769,569.75178 447.92786,569.98304 C 448.25801,570.21432 448.75215,570.71391 449.03501,570.99121 L 447.30179,572.95095 C 446.81814,572.52299 446.13813,571.94235 445.63705,571.6996 C 445.13595,571.45686 444.57287,571.33549 443.94782,571.33548 C 443.42891,571.33549 442.94842,571.43375 442.50635,571.63027 C 442.06427,571.8268 441.68399,572.09847 441.36553,572.44528 C 441.04706,572.79212 440.79939,573.19389 440.62253,573.6506 C 440.44566,574.10734 440.35723,574.5959 440.35723,575.1163 L 440.35723,575.15071 C 440.5569,577.27974 441.93876,578.45356 443.94782,578.78196 C 445.56795,578.82554 446.36473,578.0724 447.39031,576.99198 L 449.12353,578.7088 C 448.02721,579.87482 447.01726,580.82401 445.48699,581.28106 C 445.00352,581.37931 444.46096,581.42844 443.8593,581.42844 L 443.8593,581.42844 z M 459.72761,576.13931 L 457.83273,571.82763 L 455.93731,576.13931 L 459.72761,576.13931 z M 456.36211,568.9947 L 459.31151,568.9947 L 464.99278,581.22045 L 462.02037,581.22045 L 460.63774,578.49756 L 454.96463,578.49756 L 453.83272,581.22045 L 451.05558,581.22045 L 456.36211,568.9947 z"
       id="text4054"
       sodipodi:nodetypes="cccccccccccccccccccccccccccccccccccccccccsccsccccccsccscccccccccccccccsssccsssssssccsssssccccccccccccccccccccc" />
    <path
       style="fill:#f8971c;fill-opacity:1;fill-rule:evenodd;stroke:#000000;stroke-width:0;stroke-linecap:butt;stroke-linejoin:miter;stroke-miterlimit:4;stroke-dasharray:none;stroke-opacity:1"
       d="M 433.06517,552.00452 C 435.04682,552.05291 436.47935,551.02553 436.52134,548.4877 C 434.56286,548.40889 432.36408,548.69614 433.06517,552.00452 z"
       id="path4572"
       sodipodi:nodetypes="ccc" />
    <path
       style="fill:#f8971c;fill-opacity:1;fill-rule:evenodd;stroke:#000000;stroke-width:0;stroke-linecap:butt;stroke-linejoin:miter;stroke-miterlimit:4;stroke-dasharray:none;stroke-opacity:1"
       d="M 432.90756,548.49216 C 434.88921,548.54055 436.32174,547.51317 436.36373,544.97534 C 434.40525,544.89653 432.20647,545.18378 432.90756,548.49216 z"
       id="path4574"
       sodipodi:nodetypes="ccc" />
    <path
       style="fill:#f8971c;fill-opacity:1;fill-rule:evenodd;stroke:#000000;stroke-width:0;stroke-linecap:butt;stroke-linejoin:miter;stroke-miterlimit:4;stroke-dasharray:none;stroke-opacity:1"
       d="M 432.84576,544.77809 C 434.82627,544.69546 436.1878,543.57568 436.06203,541.04062 C 434.10262,541.09137 431.92763,541.52326 432.84576,544.77809 z"
       id="path4576"
       sodipodi:nodetypes="ccc" />
    <path
       style="fill:#f8971c;fill-opacity:1;fill-rule:evenodd;stroke:#000000;stroke-width:0;stroke-linecap:butt;stroke-linejoin:miter;stroke-miterlimit:4;stroke-dasharray:none;stroke-opacity:1"
       d="M 433.00731,541.09759 C 434.98069,540.9104 436.28113,539.72023 436.02156,537.19536 C 434.06757,537.3496 431.91844,537.89583 433.00731,541.09759 z"
       id="path4578"
       sodipodi:nodetypes="ccc" />
    <path
       style="fill:#f8971c;fill-opacity:1;fill-rule:evenodd;stroke:#000000;stroke-width:0;stroke-linecap:butt;stroke-linejoin:miter;stroke-miterlimit:4;stroke-dasharray:none;stroke-opacity:1"
       d="M 432.14392,552.00452 C 430.16227,552.05291 428.72974,551.02553 428.68775,548.4877 C 430.64623,548.40889 432.84501,548.69614 432.14392,552.00452 z"
       id="path4588"
       sodipodi:nodetypes="ccc" />
    <path
       style="fill:#f8971c;fill-opacity:1;fill-rule:evenodd;stroke:#000000;stroke-width:0;stroke-linecap:butt;stroke-linejoin:miter;stroke-miterlimit:4;stroke-dasharray:none;stroke-opacity:1"
       d="M 432.30153,548.49216 C 430.31988,548.54055 428.88735,547.51317 428.84536,544.97534 C 430.80384,544.89653 433.00262,545.18378 432.30153,548.49216 z"
       id="path4590"
       sodipodi:nodetypes="ccc" />
    <path
       style="fill:#f8971c;fill-opacity:1;fill-rule:evenodd;stroke:#000000;stroke-width:0;stroke-linecap:butt;stroke-linejoin:miter;stroke-miterlimit:4;stroke-dasharray:none;stroke-opacity:1"
       d="M 432.36333,544.77809 C 430.38282,544.69546 429.02129,543.57568 429.14706,541.04062 C 431.10647,541.09137 433.28146,541.52326 432.36333,544.77809 z"
       id="path4592"
       sodipodi:nodetypes="ccc" />
    <path
       style="fill:#f8971c;fill-opacity:1;fill-rule:evenodd;stroke:#000000;stroke-width:0;stroke-linecap:butt;stroke-linejoin:miter;stroke-miterlimit:4;stroke-dasharray:none;stroke-opacity:1"
       d="M 432.20178,541.09759 C 430.2284,540.9104 428.92796,539.72023 429.18753,537.19536 C 431.14152,537.3496 433.29065,537.89583 432.20178,541.09759 z"
       id="path4594"
       sodipodi:nodetypes="ccc" />
    <path
       style="fill:#f8971c;fill-opacity:1;fill-rule:evenodd;stroke:#000000;stroke-width:0;stroke-linecap:butt;stroke-linejoin:miter;stroke-miterlimit:4;stroke-dasharray:none;stroke-opacity:1"
       d="M 432.7261,538.0866 C 434.49363,537.17211 434.37633,534.94149 432.57014,533.15823 C 430.85724,534.52006 430.63768,536.73293 432.7261,538.0866 z"
       id="path4596"
       sodipodi:nodetypes="ccc" />
  </g>
</svg>
