<?xml version="1.0" standalone="no"?>
<!DOCTYPE svg PUBLIC "-//W3C//DTD SVG 20010904//EN"
 "http://www.w3.org/TR/2001/REC-SVG-20010904/DTD/svg10.dtd">
<svg version="1.0" xmlns="http://www.w3.org/2000/svg"
 width="159.000000pt" height="112.000000pt" viewBox="0 0 159.000000 112.000000"
 preserveAspectRatio="xMidYMid meet">
<metadata>
Created by potrace 1.15, written by Peter Selinger 2001-2017
</metadata>
<g transform="translate(0.000000,112.000000) scale(0.100000,-0.100000)"
fill="#000000" stroke="none">
<path d="M620 1005 c-36 -8 -107 -35 -158 -60 -168 -83 -298 -245 -369 -458
-19 -56 -37 -132 -40 -168 l-6 -65 39 -32 c189 -157 1095 -172 1367 -24 67 36
81 66 67 143 -59 326 -249 566 -515 649 -91 29 -289 37 -385 15z m280 -25
c223 -36 385 -157 494 -369 44 -86 68 -151 84 -227 l9 -41 -41 23 c-86 48
-281 85 -518 99 l-118 7 0 259 c0 201 3 259 13 259 6 0 41 -5 77 -10z m-130
-258 l0 -249 -157 -10 c-87 -6 -160 -9 -162 -7 -2 2 5 43 17 90 39 159 109
275 224 372 34 28 66 52 70 52 4 0 8 -112 8 -248z m-328 23 l55 -18 -16 -37
-16 -37 -51 17 c-74 26 -112 47 -125 71 -9 18 -7 25 16 49 l26 27 28 -27 c15
-15 52 -36 83 -45z m-82 -89 c30 -14 63 -26 74 -26 16 0 17 -5 11 -37 -3 -21
-10 -42 -15 -46 -16 -17 -153 35 -197 76 -28 25 -29 41 -2 79 l21 29 27 -25
c14 -13 51 -36 81 -50z m-69 -106 c34 -16 78 -31 99 -35 33 -6 37 -9 33 -33
-12 -76 -6 -72 -75 -56 -79 19 -175 62 -193 87 -11 16 -10 26 7 67 l20 47 24
-24 c13 -13 51 -37 85 -53z m-128 -84 c35 -26 114 -57 195 -76 l52 -12 0 -49
0 -48 -32 5 c-128 22 -249 69 -267 102 -9 17 4 102 16 102 2 0 19 -11 36 -24z
m607 -95 c0 -69 13 -98 31 -70 5 8 9 42 9 76 l0 63 43 -5 c23 -2 89 -7 147
-10 264 -13 490 -81 490 -146 0 -44 -125 -94 -306 -123 -125 -20 -126 -20
-122 1 2 10 -5 19 -16 21 -15 3 -18 0 -13 -17 4 -17 -1 -22 -30 -27 -45 -8
-541 0 -550 10 -11 10 -15 249 -5 264 5 8 55 15 148 21 76 4 147 9 157 10 15
1 17 -8 17 -68z m-545 -80 c34 -11 89 -25 123 -31 l60 -12 4 -49 c1 -27 2 -49
2 -49 -25 0 -182 37 -223 52 -104 39 -124 64 -105 135 l6 21 35 -24 c20 -13
64 -33 98 -43z"/>
</g>
</svg>
