<?xml version="1.0" standalone="no"?>
<!DOCTYPE svg PUBLIC "-//W3C//DTD SVG 20010904//EN"
 "http://www.w3.org/TR/2001/REC-SVG-20010904/DTD/svg10.dtd">
<svg version="1.0" xmlns="http://www.w3.org/2000/svg"
 width="208.000000pt" height="215.000000pt" viewBox="0 0 208.000000 215.000000"
 preserveAspectRatio="xMidYMid meet">
<metadata>
Created by potrace 1.15, written by Peter Selinger 2001-2017
</metadata>
<g transform="translate(0.000000,215.000000) scale(0.100000,-0.100000)"
fill="#000000" stroke="none">
<path d="M174 2071 c-54 -25 -110 -92 -124 -150 -32 -132 72 -263 210 -265
l58 -1 75 -151 76 -151 -43 -42 -42 -42 -37 16 c-194 81 -383 -144 -266 -317
43 -66 89 -92 169 -96 49 -3 76 0 100 13 l32 17 43 -42 44 -43 -76 -151 -75
-151 -58 -1 c-190 -3 -287 -235 -153 -366 114 -111 285 -83 353 57 l22 45 178
0 178 0 6 -25 c9 -37 75 -105 121 -126 55 -25 120 -24 181 5 55 26 87 59 106
112 l12 34 181 0 181 0 12 -33 c16 -43 67 -96 117 -118 120 -55 276 27 301
158 24 129 -83 257 -215 257 l-53 0 -75 150 -74 149 41 42 c42 43 43 43 76 29
139 -58 304 51 304 201 0 150 -165 259 -304 201 -33 -14 -34 -14 -76 29 l-41
42 74 149 75 149 53 1 c130 1 231 114 216 241 -15 136 -164 227 -291 179 -49
-19 -122 -91 -132 -130 l-6 -26 -182 1 -181 0 -25 52 c-45 90 -160 138 -255
107 -50 -17 -121 -83 -135 -126 l-12 -34 -184 0 c-172 0 -184 1 -184 18 0 11
-14 38 -31 61 -58 80 -176 112 -265 72z m172 -115 c29 -29 34 -41 34 -81 0
-55 -25 -96 -70 -115 -66 -27 -153 18 -166 86 -15 80 40 144 125 144 36 0 49
-6 77 -34z m790 0 c28 -28 34 -42 34 -75 0 -85 -56 -138 -133 -128 -72 10
-120 82 -103 153 4 15 20 39 36 55 24 25 37 29 80 29 46 0 56 -4 86 -34z m785
6 c62 -55 47 -167 -26 -198 -44 -18 -69 -18 -109 1 -60 29 -83 103 -51 165 22
42 53 60 107 60 38 0 54 -6 79 -28z m-1121 -275 l-67 -69 -131 87 c-73 48
-132 93 -132 101 0 11 35 14 183 16 l182 3 16 -35 17 -35 -68 -68z m833 121
c2 -8 -51 -50 -127 -100 l-131 -88 -67 68 c-67 67 -68 68 -56 100 l12 32 182
0 c137 0 183 -3 187 -12z m-494 -215 l31 -64 -32 18 c-42 22 -132 22 -174 0
l-31 -16 33 62 33 62 54 1 55 0 31 -63z m-34 -137 c41 -17 65 -60 65 -117 0
-33 -6 -47 -34 -75 -29 -29 -41 -34 -83 -34 -80 0 -130 55 -120 133 11 84 90
127 172 93z m-770 -272 c44 -29 59 -108 30 -163 -14 -28 -68 -61 -99 -61 -35
0 -86 30 -106 62 -25 42 -25 84 0 126 36 59 116 75 175 36z m1549 12 c79 -33
102 -126 46 -190 -36 -41 -84 -53 -132 -33 -54 23 -73 52 -73 112 0 59 18 88
70 111 38 17 49 17 89 0z m-816 -64 c26 3 53 7 60 9 7 2 24 -10 37 -26 l24
-30 -25 -32 c-22 -28 -28 -31 -50 -23 -32 13 -96 13 -128 0 -22 -8 -28 -5 -46
19 -25 36 -25 36 0 71 19 26 23 28 51 18 17 -6 51 -8 77 -6z m68 -226 c28 -28
34 -42 34 -75 0 -85 -56 -138 -133 -128 -72 10 -120 82 -103 153 4 15 20 39
36 55 24 25 37 29 80 29 46 0 56 -4 86 -34z m-86 -300 c31 0 69 7 87 16 l32
16 -31 -62 -30 -62 -55 1 -54 1 -33 61 -33 62 31 -16 c18 -10 54 -17 86 -17z
m-248 -123 l66 -68 -17 -35 -16 -35 -180 2 c-156 1 -180 4 -180 17 0 13 235
183 255 185 3 1 35 -29 72 -66z m728 -37 c68 -45 105 -76 103 -86 -3 -13 -30
-15 -186 -12 l-183 3 -12 32 c-12 31 -11 33 55 99 67 67 67 68 93 51 14 -9 72
-48 130 -87z m-1217 -40 c45 -18 67 -56 67 -112 0 -39 -5 -51 -34 -80 -29 -29
-41 -34 -81 -34 -58 0 -99 27 -115 76 -16 48 -6 95 28 126 43 41 80 47 135 24z
m792 0 c41 -17 65 -60 65 -117 0 -33 -6 -47 -34 -75 -29 -29 -41 -34 -83 -34
-80 0 -130 55 -120 133 11 84 90 127 172 93z m791 -2 c42 -20 64 -59 64 -115
0 -33 -6 -47 -34 -75 -29 -29 -41 -34 -83 -34 -55 0 -86 17 -108 60 -32 61 -9
136 49 164 40 20 70 20 112 0z"/>
</g>
</svg>
