<?xml version="1.0" standalone="no"?>
<!DOCTYPE svg PUBLIC "-//W3C//DTD SVG 20010904//EN"
 "http://www.w3.org/TR/2001/REC-SVG-20010904/DTD/svg10.dtd">
<svg version="1.0" xmlns="http://www.w3.org/2000/svg"
 width="204.000000pt" height="192.000000pt" viewBox="0 0 204.000000 192.000000"
 preserveAspectRatio="xMidYMid meet">
<metadata>
Created by potrace 1.15, written by Peter Selinger 2001-2017
</metadata>
<g transform="translate(0.000000,192.000000) scale(0.100000,-0.100000)"
fill="#000000" stroke="none">
<path d="M788 1855 c-15 -9 -32 -24 -38 -35 -10 -18 -21 -20 -145 -20 l-135 0
0 -143 0 -144 -132 -49 -131 -49 -54 -150 -54 -149 108 -108 c111 -111 113
-113 167 -92 13 5 13 1 4 -24 -11 -28 -8 -34 35 -88 l47 -59 -53 -52 c-51 -51
-53 -52 -117 -54 -61 -2 -67 0 -97 29 -54 55 -129 38 -153 -32 -14 -44 6 -88
51 -111 38 -20 89 -6 113 31 15 22 23 24 89 24 l73 0 59 60 c33 33 62 60 66
60 4 0 22 -20 40 -45 l34 -44 133 -1 132 0 0 -55 0 -55 -109 0 c-101 0 -110 2
-116 20 -8 24 -54 50 -90 50 -34 0 -85 -50 -85 -84 0 -57 46 -106 101 -106 11
0 37 16 56 35 l35 35 104 0 104 0 0 -48 0 -48 55 -27 c49 -24 55 -30 55 -57
l0 -30 -85 0 c-78 0 -86 2 -100 24 -20 30 -67 50 -97 41 -57 -17 -91 -82 -67
-127 33 -65 102 -77 152 -27 l31 31 108 -1 108 -2 0 50 0 51 63 -31 63 -31 62
29 62 30 0 -78 0 -79 176 0 175 0 25 -29 c31 -38 73 -47 113 -27 60 31 70 99
22 147 -42 41 -83 39 -128 -6 l-35 -35 -144 0 -144 0 0 69 0 69 55 22 55 22 0
54 0 54 36 -40 c20 -22 44 -40 53 -39 9 0 79 24 156 52 l140 52 52 140 c28 77
52 147 52 155 1 9 -21 38 -49 65 l-50 49 0 83 c0 45 5 85 10 88 6 3 10 1 10
-5 0 -6 12 -22 26 -35 78 -73 197 31 138 120 -24 36 -75 50 -113 30 -17 -8
-35 -24 -41 -35 -8 -14 -21 -20 -45 -20 l-35 0 0 -91 0 -91 -26 31 c-14 17
-33 31 -42 30 -10 0 -80 -23 -157 -52 l-139 -52 -33 -85 c-17 -47 -34 -89 -36
-95 -2 -5 -47 12 -101 38 l-97 46 -86 -39 c-47 -22 -87 -40 -90 -40 -2 0 15
36 37 81 l41 81 -42 54 c-23 30 -46 57 -51 61 -6 3 23 39 63 79 l73 74 56 0
c48 0 59 -4 83 -30 60 -63 157 -26 157 60 0 86 -97 123 -157 60 -26 -27 -34
-30 -94 -30 l-66 0 -77 -81 c-42 -45 -78 -80 -79 -78 -2 2 -18 23 -36 47 l-33
42 -74 0 c-41 0 -74 3 -73 8 0 4 13 41 28 82 l29 75 -46 48 -46 47 84 85 85
85 108 0 c107 0 108 0 133 -29 43 -51 104 -50 146 3 67 83 -62 197 -137 121
-14 -13 -25 -28 -25 -32 0 -4 -55 -7 -122 -5 l-123 3 -95 -95 -94 -96 -33 32
-33 32 0 123 0 123 101 0 100 0 33 -35 c43 -45 82 -47 128 -6 26 23 32 36 31
66 -2 69 -76 113 -135 80z m-370 -502 c-22 -54 -41 -99 -42 -100 -1 -1 -45
-18 -98 -37 l-96 -35 30 82 c17 45 32 89 35 97 2 8 48 31 106 52 56 20 103 37
103 37 1 1 -16 -43 -38 -96z m242 -60 c0 -6 -12 -44 -26 -82 l-26 -71 -42 0
c-37 0 -48 6 -89 48 l-48 49 43 106 43 107 72 -72 c40 -40 73 -78 73 -85z
m-206 -245 c-24 -49 -32 -57 -74 -70 l-47 -15 -80 78 -79 78 105 39 106 39 48
-47 48 -47 -27 -55z m411 -55 l68 -86 -63 6 c-35 4 -84 7 -109 7 -44 1 -48 3
-86 54 -22 30 -40 59 -39 65 1 6 2 18 3 26 1 12 17 15 79 15 l79 0 68 -87z
m-236 -47 l41 -53 -48 -102 -48 -102 -72 91 -73 91 23 41 c18 32 35 45 78 63
30 13 56 24 56 24 1 1 20 -23 43 -53z m966 -112 c-20 -49 -42 -94 -48 -100
-21 -21 -159 -66 -170 -55 -6 6 3 40 23 93 l31 85 56 17 c30 10 74 26 96 36
23 9 43 16 45 15 2 -2 -13 -43 -33 -91z m209 -165 c-21 -57 -39 -106 -41 -108
-6 -7 -153 142 -153 155 0 9 21 64 66 174 l15 34 75 -75 75 -75 -37 -105z
m-868 179 c9 -10 -74 -166 -95 -177 -11 -6 -58 -8 -119 -4 l-101 6 48 96 49
96 106 -6 c58 -3 108 -8 112 -11z m301 -164 c34 -16 61 -33 60 -38 -2 -5 -41
-26 -88 -46 l-85 -37 -94 45 -95 44 90 43 c100 47 82 48 212 -11z m483 -164
c0 -3 -48 -22 -107 -43 l-107 -37 -48 47 c-45 45 -49 51 -46 92 l3 43 75 28
75 28 78 -76 c42 -42 77 -79 77 -82z m-726 44 l96 -47 0 -113 0 -113 -102 48
-103 48 -3 112 c-1 65 1 111 7 111 5 0 52 -21 105 -46z m328 -21 c25 -24 28
-34 28 -90 l0 -63 -49 -25 c-27 -13 -75 -36 -106 -49 l-56 -25 3 111 3 111 65
28 c36 16 69 28 74 29 6 0 23 -12 38 -27z"/>
</g>
</svg>
