<?xml version="1.0" standalone="no"?>
<!DOCTYPE svg PUBLIC "-//W3C//DTD SVG 20010904//EN"
 "http://www.w3.org/TR/2001/REC-SVG-20010904/DTD/svg10.dtd">
<svg version="1.0" xmlns="http://www.w3.org/2000/svg"
 width="180.000000pt" height="180.000000pt" viewBox="0 0 180.000000 180.000000"
 preserveAspectRatio="xMidYMid meet">
<metadata>
Created by potrace 1.15, written by Peter Selinger 2001-2017
</metadata>
<g transform="translate(0.000000,180.000000) scale(0.100000,-0.100000)"
fill="#000000" stroke="none">
<path d="M877 1768 c-40 -53 -42 -74 -12 -103 27 -24 27 -25 20 -117 -9 -111
-15 -123 -56 -102 -16 8 -33 13 -38 10 -4 -3 -20 25 -34 61 -24 59 -25 69 -12
83 24 27 17 56 -20 89 -63 55 -125 31 -141 -55 -7 -38 15 -74 46 -74 12 0 20
-18 32 -67 15 -62 15 -70 0 -98 -14 -24 -23 -30 -52 -30 -30 0 -35 -4 -43 -32
-7 -25 -16 -33 -42 -37 -21 -4 -35 -14 -38 -27 -5 -19 -10 -17 -97 26 -51 25
-88 50 -85 56 11 17 -23 57 -54 64 -42 9 -99 -17 -107 -49 -9 -35 2 -70 30
-103 23 -26 27 -27 56 -16 30 11 36 9 111 -40 86 -57 99 -75 72 -94 -10 -8
-26 -20 -36 -29 -18 -14 -31 -14 -119 2 -16 3 -28 11 -28 18 0 7 -9 21 -20 31
-43 39 -149 -27 -135 -85 7 -32 59 -80 87 -80 12 0 29 7 38 15 15 14 24 13 82
-2 52 -13 68 -23 81 -46 16 -27 16 -31 0 -58 -16 -28 -16 -29 6 -53 21 -22 22
-28 12 -57 -9 -27 -9 -36 4 -48 13 -13 5 -21 -66 -69 -76 -50 -83 -53 -110
-41 -27 10 -32 9 -54 -11 -13 -13 -30 -39 -36 -58 -10 -29 -9 -38 8 -61 43
-57 144 -49 151 12 3 24 16 34 90 71 91 45 112 48 112 15 0 -11 5 -29 10 -40
9 -16 4 -29 -31 -73 -25 -32 -48 -52 -56 -49 -28 11 -61 -7 -72 -38 -17 -50
-13 -78 15 -106 21 -21 32 -25 66 -20 55 7 81 33 75 74 -5 30 -1 37 47 78 66
56 107 61 126 15 13 -30 28 -35 65 -21 16 7 26 2 46 -23 22 -25 29 -28 41 -18
13 10 16 3 22 -49 9 -89 7 -149 -4 -149 -5 0 -17 -11 -25 -24 -13 -20 -14 -29
-4 -48 20 -39 62 -78 84 -78 69 0 127 125 66 145 -18 5 -19 13 -14 103 6 110
17 132 54 111 13 -8 31 -14 39 -14 8 0 24 -26 39 -63 23 -58 23 -63 8 -80 -25
-27 -21 -44 15 -79 58 -54 102 -52 133 7 26 50 20 88 -19 111 -28 17 -35 28
-46 79 -10 48 -10 65 0 90 11 26 18 30 51 30 35 0 39 3 47 33 7 27 14 33 43
37 24 4 35 11 37 25 3 19 8 18 92 -22 77 -37 90 -47 90 -67 0 -52 67 -73 129
-41 40 20 45 51 18 105 -17 36 -28 46 -51 48 -16 2 -33 -1 -38 -6 -7 -7 -38 8
-94 45 -90 60 -104 84 -59 105 14 6 25 16 25 23 0 8 18 9 68 2 63 -9 69 -12
79 -38 10 -25 16 -29 51 -29 29 0 49 7 71 26 43 36 42 75 -3 120 -38 38 -65
43 -90 15 -17 -18 -19 -18 -87 8 -38 15 -75 36 -83 47 -13 18 -12 24 4 50 19
29 19 29 -5 54 -23 24 -24 29 -14 60 10 28 10 35 -4 45 -15 10 -5 20 69 69 67
45 89 55 99 46 23 -19 58 -7 82 29 47 70 14 131 -73 131 -44 0 -74 -24 -74
-60 0 -19 -172 -106 -189 -96 -6 4 -11 20 -11 36 0 16 -4 32 -10 35 -5 3 8 30
32 61 36 49 44 54 68 49 56 -12 93 87 54 143 -21 30 -90 31 -129 1 -21 -17
-26 -28 -21 -50 4 -24 -2 -33 -47 -72 -29 -24 -65 -46 -80 -49 -25 -5 -31 -1
-45 28 -17 38 -19 38 -58 24 -24 -10 -30 -8 -49 16 -15 19 -27 25 -42 20 -19
-6 -20 -1 -26 90 -5 94 -5 97 20 118 31 27 27 58 -13 105 -37 44 -84 43 -117
-1z m77 -260 c9 -176 15 -218 32 -218 10 0 14 15 14 59 0 70 14 84 44 47 18
-23 25 -25 53 -17 29 8 32 7 43 -19 10 -23 19 -30 48 -32 29 -2 37 -8 42 -28
4 -17 16 -28 38 -35 21 -6 32 -15 32 -28 0 -10 4 -26 9 -36 8 -15 2 -21 -35
-39 -39 -19 -61 -52 -34 -52 6 0 78 34 161 76 84 41 155 72 160 67 4 -4 -57
-51 -136 -103 -132 -87 -168 -120 -132 -120 8 0 32 13 54 29 50 36 73 29 53
-18 -12 -29 -11 -34 10 -56 22 -23 22 -25 6 -50 -16 -24 -16 -27 1 -55 16 -29
16 -30 -5 -53 -19 -20 -21 -28 -12 -51 9 -25 7 -31 -19 -55 l-29 -27 -42 29
c-31 22 -45 26 -53 18 -14 -14 -18 -11 146 -120 116 -78 156 -111 132 -111 -3
0 -73 34 -156 76 -83 41 -158 73 -166 70 -21 -9 -3 -28 47 -51 50 -22 56 -55
11 -55 -25 0 -31 -6 -41 -35 -10 -31 -15 -35 -43 -32 -25 2 -34 -3 -45 -26
-12 -25 -17 -27 -48 -21 -29 5 -37 2 -54 -19 -19 -24 -20 -24 -54 -8 -34 15
-35 18 -36 69 0 38 -4 52 -12 50 -17 -6 -24 -56 -33 -221 -11 -208 -26 -176
-41 85 -7 120 -13 146 -34 133 -9 -5 -10 -24 -6 -65 5 -47 4 -59 -9 -63 -9 -4
-21 3 -32 19 -14 23 -22 25 -54 20 -34 -5 -38 -3 -49 24 -11 27 -16 30 -45 24
-29 -5 -32 -3 -41 28 -8 27 -15 34 -42 36 -29 3 -32 6 -32 37 0 18 -6 35 -12
38 -7 2 8 15 35 28 45 22 63 49 32 49 -8 0 -83 -34 -165 -75 -85 -42 -150 -70
-149 -63 0 7 65 55 145 107 79 51 144 97 144 102 0 17 -22 20 -43 7 -12 -8
-33 -22 -47 -31 -37 -24 -53 -10 -37 32 11 30 10 34 -11 52 -23 18 -23 19 -6
48 17 28 17 31 0 56 -17 26 -17 28 5 51 20 22 22 28 12 54 -10 27 -9 32 18 51
16 11 26 25 23 31 -3 5 13 -4 36 -21 24 -17 49 -31 57 -31 38 0 -1 36 -130
121 -78 51 -144 95 -146 96 -2 2 -1 6 3 10 4 4 77 -28 162 -70 85 -43 159 -75
165 -72 19 12 8 25 -41 50 -58 30 -64 50 -16 59 28 5 36 12 41 36 6 26 11 30
41 30 27 0 36 6 49 29 14 28 17 29 45 20 26 -10 32 -8 53 16 21 25 25 27 48
14 13 -7 29 -12 34 -11 6 1 9 -20 7 -54 -4 -50 -2 -55 15 -52 16 3 19 21 30
173 13 192 10 175 22 175 4 0 11 -60 15 -132z"/>
<path d="M686 1321 c-20 -22 -37 -77 -29 -97 3 -8 17 -21 32 -28 18 -10 29
-27 36 -58 7 -26 17 -43 25 -43 16 0 16 5 6 70 l-6 40 22 -47 c34 -76 65 -59
33 17 -13 31 -12 38 3 65 l17 31 -37 34 c-42 39 -76 44 -102 16z"/>
<path d="M1071 1294 c-17 -12 -22 -24 -19 -45 4 -22 -3 -36 -29 -61 -34 -33
-43 -58 -20 -58 7 0 26 14 42 30 42 44 52 37 14 -11 -24 -31 -29 -43 -20 -52
9 -9 20 -3 46 29 27 32 40 40 59 37 47 -9 78 93 40 131 -20 21 -83 20 -113 0z"/>
<path d="M485 994 c-58 -30 -62 -77 -10 -123 41 -36 49 -37 73 -13 15 16 21
17 65 4 27 -8 51 -11 54 -8 13 13 -9 35 -42 42 -56 10 -54 26 3 18 31 -4 52
-2 56 4 9 15 -26 32 -63 32 -24 0 -34 7 -46 30 -18 34 -44 38 -90 14z"/>
<path d="M1269 955 c-11 -12 -22 -13 -49 -5 -48 14 -70 13 -70 -4 0 -7 20 -19
45 -26 57 -16 59 -30 3 -19 -59 11 -58 11 -58 -10 0 -15 10 -20 48 -25 39 -5
51 -11 60 -31 16 -35 69 -34 111 1 39 33 39 54 0 99 -33 37 -65 45 -90 20z"/>
<path d="M740 690 c-24 -30 -39 -40 -60 -40 -35 0 -60 -32 -60 -77 0 -63 57
-91 119 -58 32 16 42 34 35 62 -3 12 6 29 25 47 32 31 40 56 18 56 -7 0 -26
-13 -42 -30 -37 -39 -45 -30 -11 14 28 37 32 51 17 60 -5 4 -24 -12 -41 -34z"/>
<path d="M1060 702 c0 -9 4 -32 9 -50 14 -48 -4 -39 -23 13 -10 25 -22 45 -27
45 -18 0 -20 -26 -3 -65 13 -32 13 -42 3 -62 -19 -35 -1 -72 44 -96 34 -17 39
-18 61 -4 52 34 58 128 9 135 -16 2 -24 14 -33 53 -7 30 -17 49 -26 49 -8 0
-14 -8 -14 -18z"/>
</g>
</svg>
