<?xml version="1.0" standalone="no"?>
<!DOCTYPE svg PUBLIC "-//W3C//DTD SVG 20010904//EN"
 "http://www.w3.org/TR/2001/REC-SVG-20010904/DTD/svg10.dtd">
<svg version="1.0" xmlns="http://www.w3.org/2000/svg"
 width="199.000000pt" height="204.000000pt" viewBox="0 0 199.000000 204.000000"
 preserveAspectRatio="xMidYMid meet">
<metadata>
Created by potrace 1.15, written by Peter Selinger 2001-2017
</metadata>
<g transform="translate(0.000000,204.000000) scale(0.100000,-0.100000)"
fill="#000000" stroke="none">
<path d="M7 2033 c-14 -14 -7 -214 8 -247 20 -41 63 -66 114 -66 l41 0 0 -65
c0 -125 35 -165 143 -165 119 0 146 27 147 148 l0 82 195 0 195 0 0 -82 c1
-121 28 -148 149 -148 64 0 74 3 103 29 32 28 33 33 37 115 l3 86 188 0 188 0
3 -86 c4 -82 5 -87 37 -115 29 -26 39 -29 102 -29 122 0 150 29 150 155 l0 75
51 0 c45 0 55 4 85 34 l34 34 0 126 0 126 -983 0 c-541 0 -987 -3 -990 -7z
m1923 -126 c0 -59 -5 -89 -16 -105 l-15 -22 -904 0 c-808 0 -905 2 -919 16
-12 12 -16 37 -16 105 l0 89 935 0 935 0 0 -83z m-1520 -246 c0 -33 -4 -71
-10 -85 -9 -25 -14 -26 -80 -26 -66 0 -71 1 -80 26 -6 14 -10 52 -10 85 l0 59
90 0 90 0 0 -59z m670 -14 c0 -43 -5 -78 -12 -85 -7 -7 -39 -12 -73 -12 -34 0
-66 5 -73 12 -7 7 -12 42 -12 85 l0 73 85 0 85 0 0 -73z m680 7 c0 -96 -7
-104 -90 -104 -83 0 -90 8 -90 104 l0 66 90 0 90 0 0 -66z"/>
<path d="M1100 1211 c-14 -26 -5 -33 134 -111 63 -36 115 -67 115 -70 0 -6
-343 -203 -354 -204 -10 -1 -354 198 -354 204 0 3 53 36 119 73 89 51 120 74
120 88 0 40 -32 30 -180 -56 l-150 -87 2 -261 3 -262 120 -69 c66 -38 164 -95
218 -127 l98 -58 222 128 222 127 3 261 2 260 -158 92 c-88 50 -162 91 -165
91 -4 0 -11 -9 -17 -19z m-182 -411 l42 -24 0 -155 c0 -86 4 -162 9 -169 5 -8
17 -12 27 -10 17 3 19 17 24 167 l5 163 178 103 177 104 -2 -211 -3 -210 -190
-110 c-157 -91 -193 -108 -210 -99 -11 5 -96 54 -190 109 l-170 99 -3 211 -2
211 132 -78 c73 -43 152 -88 176 -101z"/>
<path d="M297 443 c-25 -24 11 -49 342 -241 193 -111 352 -202 354 -202 9 0
682 392 696 405 17 16 8 45 -14 45 -9 0 -166 -87 -348 -193 l-333 -193 -334
193 c-183 106 -339 193 -345 193 -6 0 -15 -3 -18 -7z"/>
</g>
</svg>
